<svg xmlns="http://www.w3.org/2000/svg" width="32" height="22.63" viewBox="0 0 32 22.63" style="shape-rendering:geometricPrecision"><path fill="#000" d="M23.82 16.53l-10.43 0c-1.44,0 -2.6,-1.17 -2.6,-2.61l0 -10.43c0,-1.44 1.16,-2.61 2.6,-2.61l10.43 0c1.44,0 2.61,1.17 2.61,2.61l0 10.43c0,1.44 -1.17,2.61 -2.61,2.61zm1.3 -13.04c0,-0.71 -0.58,-1.31 -1.3,-1.31l-10.43 0c-0.71,0 -1.3,0.59 -1.3,1.31l0 10.43c0,0.72 0.59,1.31 1.3,1.31l10.43 0c0.72,0 1.3,-0.58 1.3,-1.31l0 -10.43 0 0zm-18.24 5.22l0 10.43c0,0.71 0.58,1.29 1.31,1.29l10.43 0c0.71,0 1.3,-0.58 1.3,-1.29l0 -1.31 1.29 0 0 1.31c0,1.44 -1.16,2.6 -2.6,2.6l-10.43 0c-1.44,0 -2.61,-1.16 -2.61,-2.6l0 -10.43c0,-1.44 1.17,-2.61 2.61,-2.61l1.3 0 0 1.3 -1.3 0c-0.72,0.01 -1.3,0.59 -1.3,1.31z"/></svg>